HIERARCHY
ROOT hip
{
	OFFSET	0.00  0.00  0.00 
	CHANNELS 6 Xposition Yposition Zposition Xrotation Zrotation Yrotation
	JOINT waist
	{
		OFFSET	0.000000 2.191865 -0.079388
		CHANNELS 3 Xrotation Zrotation Yrotation
		JOINT abdomen
		{
			OFFSET	0.000000 2.770984 0.119082
			CHANNELS 3 Xrotation Zrotation Yrotation
			JOINT chest
			{
				OFFSET	0.000000 2.879627 -0.290598
				CHANNELS 3 Xrotation Zrotation Yrotation
				JOINT neck
				{
					OFFSET	0.000000 12.342733 -1.613748
					CHANNELS 3 Xrotation Zrotation Yrotation
					JOINT head
					{
						OFFSET	0.000000 4.485597 1.807195
						CHANNELS 3 Xrotation Zrotation Yrotation
						End Site
						{
							OFFSET 0.000000 7.191734 2.024398
						}
					}
				}
				JOINT lCollar
				{
					OFFSET	1.858774 10.237258 -1.915852
					CHANNELS 3 Zrotation Yrotation Xrotation
					JOINT lShldr
					{
						OFFSET	6.103279 0.000102 -0.038601
						CHANNELS 3 Zrotation Yrotation Xrotation
						JOINT lForeArm
						{
							OFFSET	10.574100 -0.365985 -0.655940
							CHANNELS 3 Zrotation Yrotation Xrotation
							JOINT lHand
							{
								OFFSET	13.213392 -0.641131 0.276866
								CHANNELS 3 Zrotation Yrotation Xrotation
								JOINT lThumb1
								{
									OFFSET	1.920964 -1.225712 1.722395
									CHANNELS 3 Zrotation Yrotation Xrotation
									JOINT lThumb2
									{
										OFFSET	0.248544 -0.143036 0.768265
										CHANNELS 3 Zrotation Yrotation Xrotation
										JOINT lThumb3
										{
											OFFSET	0.628484 -0.225174 0.508305
											CHANNELS 3 Zrotation Yrotation Xrotation
											End Site
											{
												OFFSET 0.831712 -0.207978 0.609962
											}
										}
									}
								}
								JOINT lIndex1
								{
									OFFSET	5.093442 -0.710319 1.829884
									CHANNELS 3 Zrotation Yrotation Xrotation
									JOINT lIndex2
									{
										OFFSET	0.889470 -0.051998 0.127073
										CHANNELS 3 Zrotation Yrotation Xrotation
										JOINT lIndex3
										{
											OFFSET	0.889570 -0.155981 0.127073
											CHANNELS 3 Zrotation Yrotation Xrotation
											End Site
											{
												OFFSET 0.797115 -0.294470 0.076252
											}
										}
									}
								}
								JOINT lMid1
								{
									OFFSET	5.154641 -0.519844 0.864111
									CHANNELS 3 Zrotation Yrotation Xrotation
									JOINT lMid2
									{
										OFFSET	0.928821 -0.051992 0.050831
										CHANNELS 3 Zrotation Yrotation Xrotation
										JOINT lMid3
										{
											OFFSET	0.984253 -0.311865 0.050831
											CHANNELS 3 Zrotation Yrotation Xrotation
											End Site
											{
												OFFSET 0.779717 -0.606438 -0.050831
											}
										}
									}
								}
								JOINT lRing1
								{
									OFFSET	4.924408 -0.754930 -0.235503
									CHANNELS 3 Zrotation Yrotation Xrotation
									JOINT lRing2
									{
										OFFSET	0.981624 -0.036924 -0.108278
										CHANNELS 3 Zrotation Yrotation Xrotation
										JOINT lRing3
										{
											OFFSET	0.805613 -0.205247 -0.041717
											CHANNELS 3 Zrotation Yrotation Xrotation
											End Site
											{
												OFFSET 0.667431 -0.470481 -0.035991
											}
										}
									}
								}
								JOINT lPinky1
								{
									OFFSET	4.535460 -0.816635 -1.006206
									CHANNELS 3 Zrotation Yrotation Xrotation
									JOINT lPinky2
									{
										OFFSET	0.690596 -0.064334 -0.168800
										CHANNELS 3 Zrotation Yrotation Xrotation
										JOINT lPinky3
										{
											OFFSET	0.598039 -0.111176 -0.071973
											CHANNELS 3 Zrotation Yrotation Xrotation
											End Site
											{
												OFFSET 0.422025 -0.290925 -0.035981
											}
										}
									}
								}
							}
						}
					}
				}
				JOINT rCollar
				{
					OFFSET	-1.858774 10.237258 -1.915852
					CHANNELS 3 Zrotation Yrotation Xrotation
					JOINT rShldr
					{
						OFFSET	-6.103279 0.000102 -0.038601
						CHANNELS 3 Zrotation Yrotation Xrotation
						JOINT rForeArm
						{
							OFFSET	-10.574100 -0.365985 -0.655940
							CHANNELS 3 Zrotation Yrotation Xrotation
							JOINT rHand
							{
								OFFSET	-13.213392 -0.641131 0.276866
								CHANNELS 3 Zrotation Yrotation Xrotation
								JOINT rIndex1
								{
									OFFSET	-5.093442 -0.710319 1.829884
									CHANNELS 3 Zrotation Yrotation Xrotation
									JOINT rIndex2
									{
										OFFSET	-0.889470 -0.051998 0.127073
										CHANNELS 3 Zrotation Yrotation Xrotation
										JOINT rIndex3
										{
											OFFSET	-0.889570 -0.155981 0.127073
											CHANNELS 3 Zrotation Yrotation Xrotation
											End Site
											{
												OFFSET -0.797115 -0.294470 0.076252
											}
										}
									}
								}
								JOINT rThumb1
								{
									OFFSET	-1.920964 -1.225712 1.722395
									CHANNELS 3 Zrotation Yrotation Xrotation
									JOINT rThumb2
									{
										OFFSET	-0.248544 -0.143036 0.768265
										CHANNELS 3 Zrotation Yrotation Xrotation
										JOINT rThumb3
										{
											OFFSET	-0.628484 -0.225174 0.508305
											CHANNELS 3 Zrotation Yrotation Xrotation
											End Site
											{
												OFFSET -0.831712 -0.207978 0.609962
											}
										}
									}
								}
								JOINT rMid1
								{
									OFFSET	-5.154641 -0.519844 0.864111
									CHANNELS 3 Zrotation Yrotation Xrotation
									JOINT rMid2
									{
										OFFSET	-0.928821 -0.051992 0.050831
										CHANNELS 3 Zrotation Yrotation Xrotation
										JOINT rMid3
										{
											OFFSET	-0.984253 -0.311865 0.050831
											CHANNELS 3 Zrotation Yrotation Xrotation
											End Site
											{
												OFFSET -0.779717 -0.606438 -0.050831
											}
										}
									}
								}
								JOINT rRing1
								{
									OFFSET	-4.924408 -0.754930 -0.235503
									CHANNELS 3 Zrotation Yrotation Xrotation
									JOINT rRing2
									{
										OFFSET	-0.981624 -0.036924 -0.108278
										CHANNELS 3 Zrotation Yrotation Xrotation
										JOINT rRing3
										{
											OFFSET	-0.805613 -0.205247 -0.041717
											CHANNELS 3 Zrotation Yrotation Xrotation
											End Site
											{
												OFFSET -0.667431 -0.470481 -0.035991
											}
										}
									}
								}
								JOINT rPinky1
								{
									OFFSET	-4.535460 -0.816635 -1.006206
									CHANNELS 3 Zrotation Yrotation Xrotation
									JOINT rPinky2
									{
										OFFSET	-0.690596 -0.064334 -0.168800
										CHANNELS 3 Zrotation Yrotation Xrotation
										JOINT rPinky3
										{
											OFFSET	-0.598039 -0.111176 -0.071973
											CHANNELS 3 Zrotation Yrotation Xrotation
											End Site
											{
												OFFSET -0.422025 -0.290925 -0.035981
											}
										}
									}
								}
							}
						}
					}
				}
			}
		}
	}
	JOINT lThigh
	{
		OFFSET	5.761895 -0.730553 0.000101
		CHANNELS 3 Xrotation Zrotation Yrotation
		JOINT lShin
		{
			OFFSET	-1.171020 -18.459274 1.627449
			CHANNELS 3 Xrotation Zrotation Yrotation
			JOINT lFoot
			{
				OFFSET	-0.883715 -16.872776 -3.357785
				CHANNELS 3 Xrotation Zrotation Yrotation
				JOINT lToe
				{
					OFFSET	1.287613 -2.778491 2.836049
					CHANNELS 3 Xrotation Yrotation Zrotation
					End Site
					{
						OFFSET 1.362641 -0.436631 3.828194
					}
				}
			}
		}
	}
	JOINT rThigh
	{
		OFFSET	-5.761895 -0.730553 0.000101
		CHANNELS 3 Xrotation Zrotation Yrotation
		JOINT rShin
		{
			OFFSET	1.171020 -18.459274 1.627449
			CHANNELS 3 Xrotation Zrotation Yrotation
			JOINT rFoot
			{
				OFFSET	0.883715 -16.872776 -3.357785
				CHANNELS 3 Xrotation Zrotation Yrotation
				JOINT rToe
				{
					OFFSET	-1.287613 -2.778491 2.836049
					CHANNELS 3 Xrotation Yrotation Zrotation
					End Site
					{
						OFFSET -1.362641 -0.436631 3.828194
					}
				}
			}
		}
	}
}
MOTION
Frames:     4
Frame Time: 0.033333
-10.059739 40.873222 -6.427476 10.639218 -1.651554 6.006278 -11.640851 -0.780535 0.033411 -4.218750 -0.009601 -0.001788 8.596638 -2.769468 1.492018 6.335656 -2.240773 -0.465393 -9.415706 -10.347251 2.000344 20.074316 3.107383 1.624541 -31.299322 5.064010 -22.820311 3.408362 -20.902069 24.472675 -4.656126 -0.555516 -2.091558 8.018265 23.611982 11.387757 -1.981752 -19.900316 -4.797732 -3.001594 8.107649 4.687642 -4.699767 -10.170208 0.063442 6.204845 -2.521628 -1.335089 6.019486 -4.756864 -2.339891 -3.786148 -3.899216 -0.020991 6.769401 0.428722 -0.227442 17.784250 -7.796426 -4.942142 -10.765267 -0.053745 -0.984105 10.725134 5.469815 1.941421 23.569633 -1.314385 0.378137 -14.719636 -5.884759 -4.691433 3.327639 12.872561 2.774233 29.704334 -3.979600 -0.129164 -16.907635 -0.290036 1.179636 42.008987 -16.607166 -45.942818 -3.482495 30.329330 26.815151 4.443776 1.099184 -2.158310 4.264005 10.241268 -0.000616 -6.331052 2.499479 -1.345436 -6.140765 4.919325 -2.408106 -8.038666 -23.742184 9.807795 2.290027 19.950729 -4.593962 3.189049 -8.060140 4.840291 3.874311 3.928238 -0.017414 -6.768397 -0.139451 -0.316733 -17.968990 7.894852 -5.006592 11.382794 0.337971 -1.040259 -10.625496 -5.404463 1.920629 -23.626987 1.190792 0.472145 15.339627 6.508651 -4.926201 -3.076629 -12.818944 2.733709 -0.010665 -0.005522 -0.008007 -20.830523 -0.542847 8.941580 10.329608 7.949751 -0.768255 1.565305 1.794366 11.312068 3.845053 -3.414992 -1.800647 -20.044668 -3.720741 -9.515941 11.619881 -10.440569 -3.150154 3.348745 -9.701418 -3.604846 6.414958 -3.580187 1.815336 
-9.980387 40.867390 -6.449113 10.550829 -1.715050 6.278611 -11.552914 -0.692725 0.029653 -4.218750 -0.009601 -0.001788 8.694445 -2.882480 1.360628 6.292666 -1.909595 -0.715000 -9.425938 -10.360467 1.953340 19.341349 3.099033 1.669103 -32.164562 5.017565 -23.078924 3.268181 -21.786154 23.825762 -4.410093 -0.177678 -2.056105 -0.018104 -0.003944 -0.010280 -0.015681 -0.006574 -0.010607 -0.015424 -0.007546 -0.010088 -4.709629 -10.160386 0.065379 6.195116 -2.521892 -1.333747 6.009472 -4.747948 -2.335668 -3.786148 -3.899216 -0.020991 6.779226 0.447475 -0.222019 17.784250 -7.796426 -4.942142 -10.736265 -0.043482 -0.981469 10.734933 5.469664 1.941889 23.559973 -1.322075 0.372178 -14.685552 -5.854270 -4.677960 3.337595 12.872389 2.775358 29.694864 -3.987126 -0.135179 -16.282227 -0.339897 1.253943 42.951496 -16.702135 -45.325676 -3.641850 30.786034 26.744261 4.336481 1.128318 -2.166790 4.293669 10.221581 0.004627 -6.321323 2.499746 -1.344095 -6.130502 4.901250 -2.400516 -0.001427 -0.010679 0.002670 -0.003851 -0.011809 -0.004022 -0.004104 -0.011405 -0.005351 3.864511 3.918508 -0.017402 -6.778222 -0.167514 -0.308363 -17.958452 7.886864 -4.999683 11.324829 0.317387 -1.035002 -10.635555 -5.413773 1.923508 -23.627054 1.198777 0.466525 15.281154 6.447945 -4.900480 -3.096908 -12.828209 2.737735 -0.010665 -0.005522 -0.008007 -20.849680 -0.581633 8.961948 10.427688 7.938794 -0.931875 1.664983 1.764976 11.422506 3.904959 -3.298869 -1.807458 -20.209410 -3.812759 -9.497968 12.138433 -10.489490 -3.103237 3.803705 -9.843833 -3.337024 6.416423 -3.609280 1.812822 
-9.810702 40.834030 -6.490220 10.305449 -1.715977 6.874391 -11.445439 -0.585401 0.025059 -4.218750 -0.009601 -0.001788 9.261969 -3.255515 1.009385 5.965931 -1.602060 -0.996832 -9.039263 -9.483788 1.495178 18.002350 3.081952 1.768688 -33.418030 4.312401 -22.111223 2.768226 -22.222557 22.723045 -4.045587 0.394015 -2.002126 -0.018104 -0.003944 -0.010280 -0.015681 -0.006574 -0.010607 -0.015424 -0.007546 -0.010088 -4.729404 -10.150492 0.068688 6.195116 -2.521892 -1.333747 6.009255 -4.738786 -2.332297 -3.776350 -3.889485 -0.020980 6.779266 0.456787 -0.219074 17.773718 -7.788440 -4.936575 -10.697702 -0.023288 -0.977953 10.734933 5.469664 1.941889 23.559973 -1.322075 0.372178 -14.642210 -5.823368 -4.661232 3.347925 12.881816 2.778253 29.685390 -3.994650 -0.141194 -15.226887 -0.439202 1.374426 45.135376 -16.636667 -43.626934 -4.030875 31.387592 26.623747 4.121966 1.215636 -2.187333 4.333246 10.201830 0.011242 -6.311486 2.490392 -1.341086 -6.130047 4.882925 -2.393773 -0.001427 -0.010679 0.002670 -0.003851 -0.011809 -0.004022 -0.004104 -0.011405 -0.005351 3.854724 3.918527 -0.017934 -6.788050 -0.195577 -0.299993 -17.937365 7.870891 -4.988550 11.257316 0.286869 -1.028867 -10.645353 -5.413622 1.923977 -23.617378 1.206466 0.460565 15.213417 6.386812 -4.872513 -3.126780 -12.827708 2.741117 -0.010665 -0.005522 -0.008007 -20.832767 -0.767892 8.988303 10.734469 7.926955 -1.366391 1.512192 1.673544 11.607074 3.956380 -3.173022 -1.809468 -20.476686 -4.073280 -9.488961 13.283265 -10.585508 -3.298927 4.185781 -10.243512 -2.985391 6.418373 -3.648069 1.808655 
-9.597743 40.775536 -6.551819 10.040259 -1.747582 7.547754 -11.347745 -0.487834 0.020883 -4.218750 -0.009601 -0.001788 9.907955 -3.715683 0.559335 5.964292 -1.079276 -1.502460 -8.920875 -8.854950 1.059883 16.487486 3.006371 1.857427 -34.681095 3.377713 -20.490118 2.366589 -22.223772 22.250265 -3.790582 0.607202 -1.987456 -0.018104 -0.003944 -0.010280 -0.015681 -0.006574 -0.010607 -0.015424 -0.007546 -0.010088 -4.739264 -10.140668 0.070624 6.185388 -2.522157 -1.332404 5.999239 -4.729870 -2.328074 -3.766550 -3.879753 -0.020970 6.779343 0.475409 -0.213183 17.763182 -7.780453 -4.929686 -10.659136 -0.003096 -0.974437 10.744730 5.469513 1.942357 23.560061 -1.330062 0.366558 -14.608101 -5.792889 -4.647756 3.367840 12.881472 2.780501 29.675920 -4.002175 -0.147209 -13.897878 -0.343450 1.483464 47.827137 -16.773870 -41.633732 -4.416177 32.494591 26.424795 3.760751 1.244779 -2.207388 4.372818 10.182076 0.017856 -6.301759 2.490659 -1.339746 -6.119796 4.864850 -2.386183 -0.001427 -0.010679 0.002670 -0.003851 -0.011809 -0.004022 -0.004104 -0.011405 -0.005351 3.844925 3.908796 -0.017921 -6.788128 -0.223509 -0.291156 -17.926821 7.862903 -4.982984 11.189796 0.256359 -1.022729 -10.655408 -5.422931 1.926856 -23.607775 1.222139 0.448986 15.145631 6.325695 -4.844545 -3.157016 -12.836802 2.746269 -0.010665 -0.005522 -0.008007 -20.950693 -0.960943 9.052380 11.268097 7.900869 -1.941720 1.455365 1.544278 11.697238 4.017360 -3.037541 -1.814224 -20.926689 -4.416512 -9.482543 14.803987 -10.617528 -3.688401 4.839260 -10.802270 -2.766350 6.429736 -3.686672 1.807773 
